<svg width="20" height="22" viewBox="0 0 20 22" fill="none" xmlns="http://www.w3.org/2000/svg">
<path d="M5.50001 5.00001V4.50001C5.50001 2.01768 7.516 0 10 0C12.485 0 14.5 2.01606 14.5 4.50001V5.00001H16.1135C17.4572 5.00001 18.6262 6.05314 18.7626 7.39173L19.987 19.4056C20.1309 20.8182 19.0654 22.0001 17.6477 22.0001H2.35245C0.931737 22.0001 -0.131247 20.8223 0.0131373 19.4056L1.23747 7.39173C1.3735 6.05697 2.54533 5.00001 3.88659 5.00001H5.50001ZM5.50001 7.00002H3.88659C3.57077 7.00002 3.25911 7.28113 3.22717 7.5945L2.00284 19.6083C1.97853 19.8468 2.11684 20 2.35245 20H17.6477C17.8798 20 18.0212 19.8432 17.9973 19.6083L16.7729 7.5945C16.7407 7.27784 16.4323 7.00002 16.1135 7.00002H14.5V9.00002C14.5 9.55231 14.0523 10 13.5 10C12.9477 10 12.5 9.55231 12.5 9.00002V7.00002H7.50001V9.00002C7.50001 9.55231 7.0523 10 6.50001 10C5.94772 10 5.50001 9.55231 5.50001 9.00002V7.00002ZM12.5 5.00001V4.07693C12.5 2.93049 11.3805 2 10 2C8.62001 2 7.50001 2.93124 7.50001 4.07693V5.00001H12.5Z" fill="#8E2976"/>
</svg>
