<svg width="30" height="30" viewBox="0 0 30 30" fill="none" xmlns="http://www.w3.org/2000/svg">
<path fill-rule="evenodd" clip-rule="evenodd" d="M15 30C23.2843 30 30 23.2843 30 15C30 6.71573 23.2843 0 15 0C6.71573 0 0 6.71573 0 15C0 23.2843 6.71573 30 15 30Z" fill="#F5B637" fill-opacity="0.12"/>
<path d="M7.76303 15.0306L11.2116 16.3165L12.5559 20.6418C12.6144 20.934 12.9651 20.9925 13.1989 20.8171L15.1278 19.239C15.3031 19.0636 15.5954 19.0636 15.8292 19.239L19.2777 21.7523C19.5115 21.9277 19.8622 21.8108 19.9207 21.5185L22.4925 9.24399C22.5509 8.95174 22.2587 8.65949 21.9664 8.77639L7.76303 14.2707C7.41232 14.3876 7.41232 14.9137 7.76303 15.0306ZM12.3806 15.6735L19.1608 11.5235C19.2777 11.4651 19.3946 11.6405 19.2777 11.6989L13.725 16.901C13.5496 17.0763 13.3742 17.3101 13.3742 17.6024L13.1989 19.0052C13.1989 19.1805 12.9066 19.239 12.8482 19.0052L12.1468 16.4334C11.9714 16.1411 12.0884 15.7904 12.3806 15.6735Z" fill="white"/>
</svg>
