<svg width="30" height="30" viewBox="0 0 30 30" fill="none" xmlns="http://www.w3.org/2000/svg">
<path fill-rule="evenodd" clip-rule="evenodd" d="M15 30C23.2843 30 30 23.2843 30 15C30 6.71573 23.2843 0 15 0C6.71573 0 0 6.71573 0 15C0 23.2843 6.71573 30 15 30Z" fill="#F5B637" fill-opacity="0.12"/>
<path fill-rule="evenodd" clip-rule="evenodd" d="M18.3859 10.6188C17.938 10.6188 17.5741 10.9821 17.5741 11.4313C17.5741 11.8799 17.938 12.2438 18.3859 12.2438C18.8345 12.2438 19.1984 11.8799 19.1984 11.4313C19.1984 10.9821 18.8345 10.6188 18.3859 10.6188ZM14.9999 17.2341C13.769 17.2341 12.7669 16.232 12.7669 14.9997C12.7669 13.7681 13.769 12.7666 14.9999 12.7666C16.2315 12.7666 17.2335 13.7681 17.2335 14.9997C17.2335 16.232 16.2315 17.2341 14.9999 17.2341ZM14.9999 11.5092C13.0762 11.5092 11.5108 13.0752 11.5108 14.9997C11.5108 16.9248 13.0762 18.4908 14.9999 18.4908C16.9243 18.4908 18.4896 16.9248 18.4896 14.9997C18.4896 13.0752 16.9243 11.5092 14.9999 11.5092ZM20.4784 16.9069C20.4722 17.3273 20.4557 17.7759 20.3765 18.2005C20.1617 19.3561 19.5058 20.0587 18.3718 20.349C17.8508 20.4822 17.2961 20.4864 16.7095 20.4901H16.7033C16.418 20.492 16.1253 20.4926 15.8086 20.4926C15.0122 20.4926 14.2009 20.4871 13.4155 20.4809L12.8884 20.4772C12.5006 20.4742 12.0453 20.4564 11.6059 20.3447C10.7468 20.1262 10.1626 19.6451 9.81902 18.8737C9.60179 18.3834 9.5527 17.8416 9.53368 17.3758C9.52938 17.2751 9.52202 17.18 9.51404 17.088L9.50668 16.9959V13.0494C9.51466 13.0096 9.52448 12.9537 9.52632 12.8893C9.53982 12.4272 9.55884 12.0124 9.65825 11.6159C9.87854 10.7408 10.3694 10.1493 11.1598 9.80746C11.6403 9.59943 12.1717 9.55279 12.6282 9.53377C12.7288 9.52947 12.8246 9.52149 12.9166 9.51413L13.008 9.50677H16.9567C16.9893 9.51352 17.0304 9.51965 17.0776 9.52395C17.2114 9.53561 17.3439 9.54359 17.4716 9.55095C17.7256 9.56629 17.9649 9.58041 18.1865 9.62152C18.7669 9.73075 19.2407 9.95167 19.5929 10.2775C19.9463 10.6058 20.1998 11.0612 20.3458 11.6319C20.4765 12.1431 20.4814 12.6886 20.4869 13.2648V13.3146C20.498 14.5216 20.4955 15.7305 20.4784 16.9069ZM21.7437 13.3035L21.7431 13.2538C21.7375 12.6273 21.7314 11.9792 21.5633 11.3202C21.1515 9.70929 20.0636 8.69491 18.4178 8.38685C18.1184 8.33039 17.8275 8.31321 17.5459 8.29664C17.4244 8.28989 17.309 8.28252 17.1955 8.27271C17.1893 8.27148 17.1838 8.27025 17.1777 8.26902C17.1611 8.26657 17.1445 8.26289 17.1267 8.25982L17.0727 8.25H12.9608L12.9381 8.25184C12.8964 8.25491 12.8541 8.25798 12.8129 8.26166C12.7295 8.26841 12.6509 8.27516 12.5773 8.27823C12.0385 8.30032 11.3341 8.36291 10.6609 8.65379C9.50364 9.15454 8.75686 10.048 8.44022 11.3091C8.31259 11.8172 8.28682 12.3143 8.27148 12.82C8.26718 12.839 8.2635 12.8574 8.25982 12.8758L8.25 12.9304V17.0432L8.25184 17.0659C8.25491 17.1082 8.25859 17.15 8.26227 17.1917C8.26902 17.2745 8.27516 17.3525 8.27823 17.4267C8.30032 17.9772 8.36598 18.6964 8.67156 19.3843C9.17412 20.5147 10.0577 21.248 11.2967 21.5622C11.8698 21.7083 12.4429 21.7304 12.8786 21.734L13.4063 21.7377C14.1936 21.7432 15.0073 21.75 15.8087 21.75C16.1284 21.75 16.4235 21.7488 16.7113 21.7469H16.7175C17.3544 21.7426 18.0134 21.7383 18.6829 21.5665C20.2937 21.1541 21.3068 20.0698 21.6118 18.4307C21.7081 17.9115 21.7277 17.3783 21.7345 16.9248C21.751 15.7385 21.7547 14.5204 21.7437 13.3035Z" fill="white"/>
</svg>
