<svg width="18" height="18" viewBox="0 0 18 18" fill="none" xmlns="http://www.w3.org/2000/svg">
<path d="M6.837 10.6403C4.1715 10.9913 2.25 11.97 2.25 13.125C2.25 14.5748 5.27175 15.75 9 15.75C12.7283 15.75 15.75 14.5748 15.75 13.125C15.75 11.97 13.8285 10.9913 11.163 10.6403" stroke="#8E2976" stroke-width="1.5" stroke-linecap="round" stroke-linejoin="round"/>
<path d="M13.5 5.87475C13.5 3.459 11.4855 1.5 9 1.5C6.5145 1.5 4.5 3.459 4.5 5.87475C4.5 9.156 9 12.75 9 12.75C9 12.75 13.5 9.156 13.5 5.87475Z" stroke="#8E2976" stroke-width="1.5" stroke-linecap="round" stroke-linejoin="round"/>
<path d="M10.0607 4.93934C10.6464 5.52513 10.6464 6.47487 10.0607 7.06066C9.47488 7.64645 8.52513 7.64645 7.93934 7.06066C7.35355 6.47488 7.35355 5.52513 7.93934 4.93934C8.52513 4.35355 9.47488 4.35355 10.0607 4.93934" stroke="#8E2976" stroke-width="1.5" stroke-linecap="round" stroke-linejoin="round"/>
</svg>
