<svg width="163" height="53" viewBox="0 0 163 53" fill="none" xmlns="http://www.w3.org/2000/svg">
<rect width="163" height="53" fill="#E5E5E5"/>
<g clip-path="url(#clip0)">
<rect width="1440" height="2790" transform="translate(-538 -1342)" fill="white"/>
<g opacity="0.1">
<path d="M0.40332 36.6543H2.06348C3.66553 36.6543 4.62012 37.4014 4.62012 38.6548C4.62012 39.875 3.60742 40.7134 2.11328 40.7134C0.577637 40.7134 -0.484863 39.958 -0.592773 38.7793H-2.38574C-2.27783 40.8877 -0.484863 42.2905 2.12158 42.2905C4.62842 42.2905 6.5293 40.7632 6.5293 38.7461C6.5293 37.1191 5.5332 35.9819 3.93115 35.7827V35.7163C5.25928 35.4009 6.16406 34.2886 6.16406 32.9521C6.16406 31.0596 4.51221 29.7314 2.15479 29.7314C-0.335449 29.7314 -1.9541 31.0596 -2.07861 33.2012H-0.318848C-0.210938 32.0142 0.693848 31.2837 2.09668 31.2837C3.47461 31.2837 4.32959 31.9976 4.32959 33.1431C4.32959 34.2969 3.3833 35.1021 2.01367 35.1021H0.40332V36.6543ZM10.6631 42.1494C11.8086 42.1494 12.9126 41.5352 13.4189 40.564H13.4604V42H15.1787V35.9819C15.1787 34.2305 13.8257 33.1099 11.709 33.1099C9.55078 33.1099 8.20605 34.272 8.10645 35.8491H9.7998C9.95752 35.0688 10.605 34.5708 11.6426 34.5708C12.7383 34.5708 13.394 35.1519 13.394 36.123V36.7954L11.0034 36.9365C8.92822 37.0527 7.75781 37.9907 7.75781 39.5181C7.75781 41.0869 8.96143 42.1494 10.6631 42.1494ZM11.1611 40.73C10.2065 40.73 9.56738 40.2319 9.56738 39.4683C9.56738 38.7212 10.1733 38.248 11.2441 38.1733L13.394 38.0405V38.7295C13.394 39.8667 12.4146 40.73 11.1611 40.73ZM22.7158 42H24.5171V33.2676H17.0713V42H18.8643V34.687H22.7158V42ZM31 33.1265C29.7383 33.1265 28.7339 33.7656 28.2192 34.77H28.186V33.2676H26.4512V44.8887H28.2441V40.564H28.2856C28.7837 41.5352 29.7798 42.1494 31.0332 42.1494C33.2329 42.1494 34.6772 40.3979 34.6772 37.6338C34.6772 34.8696 33.2246 33.1265 31 33.1265ZM30.5269 40.6304C29.1572 40.6304 28.2358 39.4517 28.2358 37.6338C28.2358 35.8325 29.1572 34.6372 30.5269 34.6372C31.9463 34.6372 32.8345 35.8076 32.8345 37.6338C32.8345 39.4683 31.9463 40.6304 30.5269 40.6304ZM41.9985 39.4351C41.7661 40.1987 41.0024 40.7134 39.9814 40.7134C38.5454 40.7134 37.6323 39.709 37.6323 38.1899V38.082H43.7998V37.4678C43.7998 34.8198 42.2891 33.1099 39.8735 33.1099C37.3999 33.1099 35.8228 34.936 35.8228 37.6753C35.8228 40.4312 37.375 42.166 39.9399 42.166C41.9404 42.166 43.4512 41.0288 43.7085 39.4351H41.9985ZM39.8652 34.5542C41.1187 34.5542 41.9653 35.4922 42.0068 36.8286H37.6489C37.7319 35.5088 38.6118 34.5542 39.8652 34.5542ZM51.6689 33.2676H44.4058V34.687H47.1367V42H48.938V34.687H51.6689V33.2676ZM62.1611 42H63.9541V33.2676H62.1611V36.7871H58.2266V33.2676H56.4336V42H58.2266V38.1982H62.1611V42ZM68.4531 42.1494C69.5986 42.1494 70.7026 41.5352 71.209 40.564H71.2505V42H72.9688V35.9819C72.9688 34.2305 71.6157 33.1099 69.499 33.1099C67.3408 33.1099 65.9961 34.272 65.8965 35.8491H67.5898C67.7476 35.0688 68.395 34.5708 69.4326 34.5708C70.5283 34.5708 71.1841 35.1519 71.1841 36.123V36.7954L68.7935 36.9365C66.7183 37.0527 65.5479 37.9907 65.5479 39.5181C65.5479 41.0869 66.7515 42.1494 68.4531 42.1494ZM68.9512 40.73C67.9966 40.73 67.3574 40.2319 67.3574 39.4683C67.3574 38.7212 67.9634 38.248 69.0342 38.1733L71.1841 38.0405V38.7295C71.1841 39.8667 70.2046 40.73 68.9512 40.73ZM1.98047 66C3.87305 66 5.05176 65.0205 5.05176 63.4849C5.05176 62.4058 4.30469 61.6255 3.17578 61.4761V61.4097C4.01416 61.252 4.66162 60.4219 4.66162 59.5171C4.66162 58.1226 3.63232 57.2676 1.93066 57.2676H-2.03711V66H1.98047ZM-0.260742 58.5708H1.55713C2.42041 58.5708 2.89355 58.9858 2.89355 59.7246C2.89355 60.5049 2.38721 60.895 1.37451 60.895H-0.260742V58.5708ZM-0.260742 62.1484H1.49072C2.66943 62.1484 3.25879 62.5635 3.25879 63.4102C3.25879 64.2485 2.70264 64.6968 1.69824 64.6968H-0.260742V62.1484ZM8.37207 66V59.9404H8.43018L11.0449 65.6597H12.3564L14.9712 59.9404H15.0293V66H16.7725V57.2676H14.5728L11.7588 63.6675H11.6924L8.89502 57.2676H6.64551V66H8.37207ZM24.4839 63.4351C24.2515 64.1987 23.4878 64.7134 22.4668 64.7134C21.0308 64.7134 20.1177 63.709 20.1177 62.1899V62.082H26.2852V61.4678C26.2852 58.8198 24.7744 57.1099 22.3589 57.1099C19.8853 57.1099 18.3081 58.936 18.3081 61.6753C18.3081 64.4312 19.8604 66.166 22.4253 66.166C24.4258 66.166 25.9365 65.0288 26.1938 63.4351H24.4839ZM22.3506 58.5542C23.604 58.5542 24.4507 59.4922 24.4922 60.8286H20.1343C20.2173 59.5088 21.0972 58.5542 22.3506 58.5542ZM27.8291 66H39.0435V57.2676H37.2505V64.5806H34.3369V57.2676H32.5356V64.5806H29.6221V57.2676H27.8291V66ZM43.5342 66.1494C44.6797 66.1494 45.7837 65.5352 46.29 64.564H46.3315V66H48.0498V59.9819C48.0498 58.2305 46.6968 57.1099 44.5801 57.1099C42.4219 57.1099 41.0771 58.272 40.9775 59.8491H42.6709C42.8286 59.0688 43.4761 58.5708 44.5137 58.5708C45.6094 58.5708 46.2651 59.1519 46.2651 60.123V60.7954L43.8745 60.9365C41.7993 61.0527 40.6289 61.9907 40.6289 63.5181C40.6289 65.0869 41.8325 66.1494 43.5342 66.1494ZM44.0322 64.73C43.0776 64.73 42.4385 64.2319 42.4385 63.4683C42.4385 62.7212 43.0444 62.248 44.1152 62.1733L46.2651 62.0405V62.7295C46.2651 63.8667 45.2856 64.73 44.0322 64.73ZM56.4502 57.2676H49.187V58.687H51.918V66H53.7192V58.687H56.4502V57.2676ZM63.3813 63.4351C63.1489 64.1987 62.3853 64.7134 61.3643 64.7134C59.9282 64.7134 59.0151 63.709 59.0151 62.1899V62.082H65.1826V61.4678C65.1826 58.8198 63.6719 57.1099 61.2563 57.1099C58.7827 57.1099 57.2056 58.936 57.2056 61.6753C57.2056 64.4312 58.7578 66.166 61.3228 66.166C63.3232 66.166 64.834 65.0288 65.0913 63.4351H63.3813ZM61.248 58.5542C62.5015 58.5542 63.3481 59.4922 63.3896 60.8286H59.0317C59.1147 59.5088 59.9946 58.5542 61.248 58.5542ZM69.0674 62.0239L69.2998 58.687H71.9644V66H73.7656V57.2676H67.7144L67.4155 61.9492C67.3159 63.4683 67.0171 64.481 66.1704 64.481C65.9463 64.481 65.7803 64.4395 65.6973 64.4146V65.9917C65.8052 66.0332 66.0127 66.083 66.3032 66.083C68.2622 66.083 68.9014 64.4976 69.0674 62.0239ZM75.6914 66H79.1445C81.1616 66 82.4648 64.8296 82.4648 62.9785C82.4648 61.1357 81.1616 59.9653 79.1445 59.9653H77.4844V57.2676H75.6914V66ZM78.9868 61.3682C80.0078 61.3682 80.6802 62.0073 80.6802 62.9785C80.6802 63.9414 80.0161 64.5889 78.9868 64.5889H77.4844V61.3682H78.9868ZM91.4546 60.2725C91.2969 58.5542 89.9272 57.1099 87.6777 57.1099C85.1958 57.1099 83.5688 58.8613 83.5688 61.6338C83.5688 64.4561 85.1958 66.166 87.6943 66.166C89.7944 66.166 91.2803 64.9043 91.4712 63.0449H89.7529C89.5371 64.0576 88.8149 64.6636 87.7109 64.6636C86.3247 64.6636 85.395 63.5513 85.395 61.6338C85.395 59.7578 86.3081 58.604 87.6943 58.604C88.8647 58.604 89.562 59.3428 89.7446 60.2725H91.4546ZM99.3486 57.2676H92.0854V58.687H94.8164V66H96.6177V58.687H99.3486V57.2676ZM104.678 66C106.57 66 107.749 65.0205 107.749 63.4849C107.749 62.4058 107.002 61.6255 105.873 61.4761V61.4097C106.711 61.252 107.359 60.4219 107.359 59.5171C107.359 58.1226 106.33 57.2676 104.628 57.2676H100.66V66H104.678ZM102.437 58.5708H104.254C105.118 58.5708 105.591 58.9858 105.591 59.7246C105.591 60.5049 105.084 60.895 104.072 60.895H102.437V58.5708ZM102.437 62.1484H104.188C105.367 62.1484 105.956 62.5635 105.956 63.4102C105.956 64.2485 105.4 64.6968 104.396 64.6968H102.437V62.1484ZM113.095 66.166C115.593 66.166 117.237 64.4478 117.237 61.6338C117.237 58.8281 115.585 57.1099 113.095 57.1099C110.613 57.1099 108.953 58.8281 108.953 61.6338C108.953 64.4478 110.596 66.166 113.095 66.166ZM113.095 64.6885C111.692 64.6885 110.779 63.5762 110.779 61.6338C110.779 59.6997 111.7 58.5874 113.095 58.5874C114.498 58.5874 115.411 59.6997 115.411 61.6338C115.411 63.5762 114.506 64.6885 113.095 64.6885Z" fill="#333333"/>
<path d="M8.51367 15V4.43115H6.98291L3.33545 13.3228H3.27686L-0.370605 4.43115H-1.90137V15H-0.670898V6.85547H-0.619629L2.74951 15H3.86279L7.23193 6.85547H7.2832V15H8.51367ZM12.7397 15.1318C13.7651 15.1318 14.7319 14.5605 15.186 13.689H15.2153V15H16.4238V9.73389C16.4238 8.21777 15.2959 7.25098 13.5088 7.25098C11.707 7.25098 10.5791 8.26172 10.4912 9.58008H11.7217C11.8828 8.83301 12.498 8.37158 13.4795 8.37158C14.5342 8.37158 15.1494 8.92822 15.1494 9.8584V10.4956L12.9668 10.6201C11.209 10.7227 10.2056 11.543 10.2056 12.8467C10.2056 14.2163 11.2236 15.1318 12.7397 15.1318ZM13.0254 14.0479C12.1099 14.0479 11.502 13.5718 11.502 12.8467C11.502 12.1289 12.0879 11.6748 13.1133 11.6089L15.1494 11.4844V12.1069C15.1494 13.2056 14.2266 14.0479 13.0254 14.0479ZM19.5146 11.3379L22.7886 15H24.4292L20.7817 10.9863L24.3267 7.38281H22.752L19.5146 10.752H19.4561V7.38281H18.1816V15H19.4561V11.3379H19.5146ZM31.6802 9.88037C31.519 8.51074 30.3838 7.25098 28.4795 7.25098C26.3774 7.25098 24.9785 8.78906 24.9785 11.1914C24.9785 13.645 26.3848 15.1318 28.4941 15.1318C30.2227 15.1318 31.4971 14.0625 31.6948 12.5464H30.4424C30.2227 13.4619 29.5415 14.0112 28.5015 14.0112C27.1831 14.0112 26.2749 12.9639 26.2749 11.1914C26.2749 9.46289 27.1685 8.37158 28.4868 8.37158C29.6074 8.37158 30.252 9.05273 30.4351 9.88037H31.6802ZM37.6128 15V5.63232H42.5566V4.43115H36.2871V15H37.6128ZM44.373 11.6382L44.6074 8.43018H47.1709V15H48.4453V7.38281H43.4575L43.1646 11.6089C43.0693 13.0078 42.7837 13.894 42.0293 13.894C41.8462 13.894 41.707 13.8574 41.6411 13.8354V14.9854C41.729 15.022 41.8755 15.0659 42.0952 15.0659C43.6992 15.0659 44.2192 13.7402 44.373 11.6382ZM55.3081 12.8174C55.0957 13.5352 54.3853 14.0259 53.4185 14.0259C52.0488 14.0259 51.1919 13.0664 51.1919 11.6089V11.5356H56.6558V11.0522C56.6558 8.74512 55.3887 7.25098 53.3306 7.25098C51.2285 7.25098 49.8809 8.85498 49.8809 11.2207C49.8809 13.6157 51.2065 15.1318 53.3892 15.1318C55.0518 15.1318 56.3408 14.1504 56.5605 12.8174H55.3081ZM53.3086 8.35693C54.5098 8.35693 55.3081 9.26514 55.3374 10.5396H51.1992C51.2798 9.27246 52.1147 8.35693 53.3086 8.35693ZM61.3506 15.1318C63.5552 15.1318 64.9102 13.6597 64.9102 11.2646C64.9102 8.99414 63.5991 7.54395 61.541 7.54395C60.3691 7.54395 59.417 8.0127 58.9189 8.91357H58.8604C59.168 6.63574 59.7979 5.70557 61.9146 5.625L62.4785 5.60303C63.3574 5.56641 64.1631 5.37598 64.4048 5.15625V4.04297C63.9727 4.27002 63.1523 4.4165 62.4199 4.45312L61.856 4.4751C58.897 4.58496 57.7837 6.33545 57.7837 10.5396C57.7837 13.5645 59.0142 15.1318 61.3506 15.1318ZM61.3506 14.0039C59.915 14.0039 59.0874 13.0151 59.0874 11.2646C59.0874 9.60205 59.915 8.65723 61.3506 8.65723C62.7788 8.65723 63.6064 9.60205 63.6064 11.2646C63.6064 13.0151 62.7788 14.0039 61.3506 14.0039ZM69.4951 15.1318C71.5972 15.1318 73.0181 13.6157 73.0181 11.1914C73.0181 8.75977 71.5972 7.25098 69.4951 7.25098C67.3857 7.25098 65.9648 8.75977 65.9648 11.1914C65.9648 13.6157 67.3857 15.1318 69.4951 15.1318ZM69.4951 14.0112C68.1475 14.0112 67.2612 12.9858 67.2612 11.1914C67.2612 9.39697 68.1475 8.37158 69.4951 8.37158C70.8428 8.37158 71.7217 9.39697 71.7217 11.1914C71.7217 12.9858 70.8428 14.0112 69.4951 14.0112ZM77.7275 15C79.3462 15 80.3423 14.1577 80.3423 12.8101C80.3423 11.8799 79.7124 11.1987 78.7529 11.0669V11.0083C79.4561 10.8618 80.0054 10.1367 80.0054 9.35303C80.0054 8.12988 79.1338 7.38281 77.7056 7.38281H74.4463V15H77.7275ZM75.7207 8.41553H77.5151C78.3135 8.41553 78.7456 8.79639 78.7456 9.48486C78.7456 10.2246 78.2842 10.5835 77.3247 10.5835H75.7207V8.41553ZM75.7207 11.6089H77.4272C78.5405 11.6089 79.0752 11.9897 79.0752 12.7808C79.0752 13.5498 78.5771 13.9673 77.6543 13.9673H75.7207V11.6089Z" fill="#777777"/>
</g>
<g filter="url(#filter0_dd)">
<rect x="-103" y="-450" width="570" height="561" rx="5" fill="white"/>
</g>
<path d="M150.86 -0.999821H12.1469C11.6413 -0.999821 11.1418 -0.999821 10.6375 -0.997071C10.2153 -0.994321 9.79656 -0.986333 9.37037 -0.979609C8.44449 -0.968744 7.52078 -0.887517 6.60728 -0.736633C5.69507 -0.582465 4.81142 -0.291814 3.98625 0.125489C3.16208 0.546322 2.40901 1.09315 1.75436 1.74614C1.09628 2.39729 0.547715 3.14994 0.129765 3.97513C-0.289337 4.79869 -0.579945 5.6812 -0.732019 6.59219C-0.88554 7.50203 -0.968151 8.42236 -0.97911 9.34493C-0.991906 9.7665 -0.993257 10.1895 -1 10.6111V42.3931C-0.993257 42.82 -0.991906 43.2336 -0.97911 43.6607C-0.968147 44.5832 -0.885537 45.5035 -0.732019 46.4133C-0.580365 47.3248 -0.28974 48.2079 0.129765 49.0317C0.547525 49.8543 1.09616 50.6039 1.75436 51.2514C2.40652 51.9073 3.16008 52.4545 3.98625 52.8721C4.81142 53.2905 5.69496 53.5829 6.60728 53.7394C7.52094 53.8891 8.44455 53.9704 9.37037 53.9825C9.79656 53.9919 10.2153 53.9973 10.6375 53.9973C11.1417 54 11.6413 54 12.1469 54H150.86C151.356 54 151.859 54 152.355 53.9973C152.775 53.9973 153.206 53.9919 153.626 53.9825C154.55 53.971 155.472 53.8898 156.383 53.7394C157.299 53.5818 158.185 53.2895 159.015 52.8721C159.84 52.4542 160.593 51.9071 161.245 51.2514C161.901 50.6013 162.451 49.8523 162.874 49.0317C163.29 48.2073 163.578 47.3243 163.727 46.4133C163.881 45.5034 163.967 44.5833 163.983 43.6607C163.989 43.2336 163.989 42.82 163.989 42.3931C163.999 41.8936 163.999 41.3968 163.999 40.8891V12.1123C163.999 11.6088 163.999 11.1093 163.989 10.6111C163.989 10.1895 163.989 9.7665 163.983 9.34488C163.967 8.42223 163.881 7.5021 163.727 6.59213C163.578 5.68167 163.29 4.79923 162.874 3.97508C162.023 2.32106 160.673 0.974707 159.015 0.125365C158.185 -0.290918 157.299 -0.581492 156.383 -0.736757C155.472 -0.888305 154.55 -0.969561 153.626 -0.979801C153.206 -0.986511 152.775 -0.994569 152.355 -0.99725C151.859 -1 151.356 -1 150.86 -1V-0.999821Z" fill="#A6A6A6"/>
<path d="M10.6442 52.7968C10.2241 52.7968 9.81411 52.7915 9.3973 52.7821C8.53383 52.7709 7.67239 52.6959 6.82002 52.5579C6.02524 52.4214 5.2553 52.1674 4.53562 51.8045C3.82253 51.4446 3.17214 50.9726 2.60936 50.4067C2.03843 49.8474 1.5631 49.1988 1.20222 48.4865C0.83736 47.7696 0.584855 47.0011 0.453501 46.2079C0.311651 45.3555 0.234904 44.4937 0.223922 43.6297C0.21518 43.3397 0.203735 42.3742 0.203735 42.3742V10.6111C0.203735 10.6111 0.215924 9.66037 0.223991 9.38107C0.234506 8.51851 0.310807 7.658 0.452233 6.80698C0.583829 6.01157 0.836529 5.24089 1.20159 4.5216C1.56114 3.80978 2.03383 3.16067 2.60132 2.59942C3.16817 2.03285 3.82064 1.55845 4.53494 1.19353C5.25297 0.831749 6.02145 0.579628 6.81463 0.445618C7.66979 0.306146 8.53423 0.230742 9.40069 0.220036L10.6449 0.203247H152.348L153.607 0.22071C154.465 0.230883 155.322 0.305615 156.169 0.44427C156.971 0.579962 157.747 0.833841 158.473 1.19756C159.904 1.93297 161.069 3.09646 161.803 4.52495C162.162 5.23928 162.411 6.00367 162.541 6.79221C162.684 7.65021 162.764 8.51749 162.781 9.38712C162.785 9.77652 162.785 10.1948 162.785 10.6111C162.796 11.1267 162.796 11.6175 162.796 12.1123V40.8891C162.796 41.3886 162.796 41.8761 162.785 42.3675C162.785 42.8146 162.785 43.2242 162.779 43.6458C162.763 44.4999 162.685 45.3517 162.544 46.1944C162.415 46.9933 162.164 47.7678 161.799 48.4906C161.436 49.1952 160.963 49.8382 160.399 50.3959C159.836 50.9649 159.184 51.4396 158.469 51.8019C157.745 52.1676 156.97 52.4225 156.169 52.5579C155.317 52.6967 154.456 52.7716 153.592 52.7821C153.188 52.7915 152.765 52.7968 152.355 52.7968L150.86 52.7996L10.6442 52.7968Z" fill="black"/>
<path d="M33.1526 26.9135C33.1675 25.7659 33.4732 24.6406 34.0413 23.6424C34.6094 22.6442 35.4215 21.8056 36.402 21.2045C35.7791 20.3174 34.9574 19.5873 34.0021 19.0723C33.0468 18.5573 31.9842 18.2715 30.8987 18.2377C28.5833 17.9953 26.3386 19.6193 25.1587 19.6193C23.956 19.6193 22.1393 18.2617 20.1831 18.3019C18.9178 18.3426 17.6846 18.7096 16.6037 19.3669C15.5229 20.0242 14.6312 20.9495 14.0156 22.0527C11.3489 26.6567 13.338 33.4232 15.8925 37.1447C17.1706 38.9671 18.6642 41.0027 20.6187 40.9305C22.5313 40.8514 23.2456 39.7144 25.5542 39.7144C27.8414 39.7144 28.5115 40.9305 30.5056 40.8846C32.5579 40.8514 33.8509 39.0542 35.0842 37.2146C36.0024 35.9161 36.7091 34.481 37.1778 32.9624C35.9855 32.4595 34.968 31.6178 34.2522 30.5421C33.5365 29.4664 33.154 28.2045 33.1526 26.9135Z" fill="white"/>
<path d="M29.3861 15.7902C30.5051 14.4507 31.0563 12.7289 30.9228 10.9906C29.2133 11.1697 27.6341 11.9844 26.5001 13.2726C25.9456 13.9018 25.5209 14.6339 25.2503 15.427C24.9797 16.2201 24.8685 17.0585 24.923 17.8945C25.7781 17.9032 26.6241 17.7184 27.3971 17.3539C28.1702 16.9894 28.8503 16.4548 29.3861 15.7902Z" fill="white"/>
<path d="M57.3286 36.3171H50.8019L49.2345 40.9322H46.4701L52.6521 23.8575H55.5242L61.7062 40.9322H58.8946L57.3286 36.3171ZM51.4779 34.1875H56.6513L54.101 26.6975H54.0296L51.4779 34.1875Z" fill="white"/>
<path d="M75.057 34.7086C75.057 38.5771 72.9806 41.0626 69.8472 41.0626C69.0535 41.104 68.2641 40.9216 67.5694 40.5365C66.8748 40.1513 66.3029 39.5788 65.9194 38.8846H65.8601V45.0506H63.2976V28.4835H65.778V30.5541H65.8251C66.2263 29.8632 66.8078 29.2937 67.5077 28.9061C68.2077 28.5186 68.9999 28.3275 69.8001 28.3532C72.9684 28.3533 75.057 30.8508 75.057 34.7086ZM72.4231 34.7086C72.4231 32.1882 71.117 30.5312 69.1241 30.5312C67.1662 30.5312 65.8493 32.2231 65.8493 34.7086C65.8493 37.2169 67.1662 38.8967 69.1241 38.8967C71.117 38.8967 72.4231 37.2518 72.4231 34.7086Z" fill="white"/>
<path d="M88.7972 34.7086C88.7972 38.5771 86.7208 41.0626 83.5874 41.0626C82.7937 41.104 82.0043 40.9216 81.3097 40.5364C80.615 40.1512 80.0431 39.5788 79.6596 38.8846H79.6003V45.0506H77.0378V28.4835H79.5182V30.554H79.5653C79.9665 29.8632 80.548 29.2936 81.2479 28.9061C81.9479 28.5186 82.7401 28.3275 83.5403 28.3532C86.7087 28.3532 88.7972 30.8508 88.7972 34.7086ZM86.1634 34.7086C86.1634 32.1882 84.8572 30.5312 82.8643 30.5312C80.9065 30.5312 79.5896 32.2231 79.5896 34.7086C79.5896 37.2169 80.9065 38.8967 82.8643 38.8967C84.8572 38.8967 86.1634 37.2518 86.1634 34.7086H86.1634Z" fill="white"/>
<path d="M97.8781 36.1748C98.068 37.8681 99.7175 38.9798 101.972 38.9798C104.131 38.9798 105.685 37.868 105.685 36.3413C105.685 35.016 104.748 34.2224 102.529 33.6786L100.31 33.1455C97.1658 32.3882 95.7061 30.9219 95.7061 28.5425C95.7061 25.5964 98.2807 23.5729 101.937 23.5729C105.555 23.5729 108.035 25.5964 108.119 28.5425H105.532C105.377 26.8385 103.964 25.8099 101.9 25.8099C99.8359 25.8099 98.4234 26.8506 98.4234 28.3652C98.4234 29.5724 99.3256 30.2827 101.533 30.8265L103.419 31.2884C106.932 32.1169 108.392 33.5241 108.392 36.0216C108.392 39.2161 105.84 41.2168 101.782 41.2168C97.9844 41.2168 95.4206 39.2631 95.255 36.1747L97.8781 36.1748Z" fill="white"/>
<path d="M113.922 25.5374V28.4834H116.296V30.5069H113.922V37.3698C113.922 38.436 114.398 38.9328 115.441 38.9328C115.723 38.9279 116.004 38.9082 116.284 38.8737V40.8852C115.815 40.9726 115.338 41.0122 114.861 41.0033C112.333 41.0033 111.348 40.0567 111.348 37.6424V30.5069H109.533V28.4834H111.348V25.5374H113.922Z" fill="white"/>
<path d="M117.671 34.7085C117.671 30.7916 119.984 28.3303 123.592 28.3303C127.211 28.3303 129.514 30.7916 129.514 34.7085C129.514 38.6361 127.223 41.0866 123.592 41.0866C119.962 41.0866 117.671 38.6361 117.671 34.7085ZM126.903 34.7085C126.903 32.0216 125.668 30.4358 123.592 30.4358C121.515 30.4358 120.282 32.0337 120.282 34.7085C120.282 37.4061 121.515 38.9798 123.592 38.9798C125.668 38.9798 126.903 37.4061 126.903 34.7085H126.903Z" fill="white"/>
<path d="M131.626 28.4834H134.07V30.6023H134.13C134.295 29.9405 134.684 29.3557 135.231 28.9461C135.778 28.5365 136.449 28.3271 137.133 28.3531C137.428 28.3521 137.722 28.3841 138.01 28.4485V30.8386C137.638 30.725 137.249 30.6728 136.859 30.6842C136.487 30.6691 136.116 30.7346 135.771 30.876C135.427 31.0175 135.117 31.2316 134.863 31.5037C134.61 31.7758 134.418 32.0995 134.302 32.4524C134.185 32.8053 134.147 33.1792 134.189 33.5483V40.9322H131.626L131.626 28.4834Z" fill="white"/>
<path d="M149.825 37.2758C149.48 39.5357 147.273 41.0866 144.45 41.0866C140.818 41.0866 138.564 38.6602 138.564 34.7676C138.564 30.8628 140.83 28.3303 144.342 28.3303C147.796 28.3303 149.968 30.6963 149.968 34.4708V35.3463H141.151V35.5007C141.11 35.9589 141.167 36.4204 141.319 36.8547C141.471 37.2889 141.714 37.686 142.032 38.0195C142.349 38.353 142.735 38.6153 143.162 38.789C143.589 38.9627 144.048 39.0437 144.509 39.0268C145.114 39.0834 145.722 38.9435 146.242 38.6281C146.761 38.3126 147.164 37.8383 147.392 37.2758L149.825 37.2758ZM141.163 33.5604H147.404C147.427 33.1485 147.364 32.7362 147.22 32.3496C147.076 31.9629 146.853 31.6102 146.565 31.3135C146.278 31.0168 145.932 30.7826 145.549 30.6255C145.167 30.4685 144.756 30.392 144.342 30.4009C143.925 30.3984 143.511 30.4783 143.125 30.6361C142.739 30.7939 142.388 31.0263 142.092 31.3201C141.797 31.6138 141.562 31.963 141.403 32.3476C141.243 32.7321 141.162 33.1443 141.163 33.5604V33.5604Z" fill="white"/>
<path d="M51.157 11.0053C51.6942 10.9668 52.2333 11.0478 52.7353 11.2422C53.2374 11.4367 53.6899 11.7399 54.0603 12.1299C54.4306 12.5198 54.7095 12.9869 54.8769 13.4974C55.0443 14.0079 55.096 14.5491 55.0283 15.0819C55.0283 17.703 53.6077 19.2097 51.157 19.2097H48.1852V11.0053H51.157ZM49.463 18.0494H51.0142C51.3981 18.0723 51.7823 18.0095 52.1388 17.8657C52.4953 17.7218 52.8151 17.5005 53.075 17.2179C53.3349 16.9352 53.5283 16.5983 53.6412 16.2317C53.7541 15.8651 53.7836 15.478 53.7275 15.0986C53.7795 14.7207 53.747 14.3361 53.6324 13.9722C53.5178 13.6082 53.3239 13.2741 53.0646 12.9937C52.8053 12.7133 52.487 12.4936 52.1325 12.3502C51.778 12.2069 51.3962 12.1436 51.0142 12.1647H49.463V18.0494Z" fill="white"/>
<path d="M56.4717 16.1112C56.4327 15.7043 56.4794 15.2938 56.6088 14.9059C56.7382 14.5181 56.9474 14.1615 57.2231 13.859C57.4988 13.5565 57.8348 13.3149 58.2097 13.1495C58.5845 12.9841 58.9899 12.8987 59.3998 12.8987C59.8097 12.8987 60.215 12.9841 60.5899 13.1495C60.9647 13.3149 61.3008 13.5565 61.5765 13.859C61.8522 14.1615 62.0614 14.5181 62.1908 14.9059C62.3202 15.2938 62.3669 15.7043 62.3278 16.1112C62.3676 16.5185 62.3215 16.9296 62.1924 17.3181C62.0634 17.7065 61.8543 18.0638 61.5785 18.3669C61.3027 18.6699 60.9664 18.9121 60.5912 19.0778C60.216 19.2436 59.8102 19.3292 59.3998 19.3292C58.9894 19.3292 58.5836 19.2436 58.2083 19.0778C57.8331 18.9121 57.4968 18.6699 57.2211 18.3669C56.9453 18.0638 56.7362 17.7065 56.6071 17.3181C56.4781 16.9296 56.432 16.5185 56.4717 16.1112ZM61.0675 16.1112C61.0675 14.7691 60.4629 13.9843 59.4018 13.9843C58.3367 13.9843 57.7375 14.7691 57.7375 16.1112C57.7375 17.464 58.3367 18.2428 59.4018 18.2428C60.4629 18.2428 61.0675 17.4587 61.0675 16.1112H61.0675Z" fill="white"/>
<path d="M70.1122 19.2096H68.8411L67.5578 14.6495H67.4609L66.183 19.2096H64.924L63.2125 13.0181H64.4554L65.5676 17.7426H65.6592L66.9357 13.0181H68.1112L69.3878 17.7426H69.4847L70.5916 13.0181H71.8169L70.1122 19.2096Z" fill="white"/>
<path d="M73.2564 13.0181H74.4359V14.0016H74.5275C74.6828 13.6484 74.9448 13.3522 75.2769 13.1545C75.6091 12.9568 75.9948 12.8673 76.3803 12.8986C76.6824 12.8759 76.9858 12.9213 77.2679 13.0315C77.55 13.1416 77.8036 13.3136 78.01 13.5348C78.2164 13.7559 78.3703 14.0206 78.4602 14.3091C78.5501 14.5976 78.5737 14.9025 78.5294 15.2014V19.2095H77.304V15.5082C77.304 14.5133 76.8705 14.0184 75.9642 14.0184C75.7591 14.0089 75.5544 14.0437 75.364 14.1205C75.1736 14.1972 75.0022 14.3142 74.8614 14.4632C74.7206 14.6122 74.6137 14.7898 74.5482 14.9839C74.4826 15.1779 74.46 15.3838 74.4817 15.5875V19.2096H73.2563L73.2564 13.0181Z" fill="white"/>
<path d="M80.4819 10.6011H81.7073V19.2096H80.4819V10.6011Z" fill="white"/>
<path d="M83.4105 16.1112C83.3715 15.7043 83.4182 15.2937 83.5477 14.9059C83.6771 14.518 83.8864 14.1614 84.1621 13.8589C84.4378 13.5564 84.7739 13.3148 85.1488 13.1494C85.5236 12.984 85.929 12.8986 86.3389 12.8986C86.7489 12.8986 87.1542 12.984 87.5291 13.1494C87.904 13.3148 88.24 13.5564 88.5158 13.8589C88.7915 14.1614 89.0008 14.518 89.1302 14.9059C89.2596 15.2937 89.3063 15.7043 89.2673 16.1112C89.307 16.5185 89.2609 16.9296 89.1318 17.3181C89.0027 17.7065 88.7935 18.0638 88.5177 18.3668C88.242 18.6699 87.9056 18.9121 87.5304 19.0778C87.1552 19.2435 86.7493 19.3291 86.3389 19.3291C85.9285 19.3291 85.5227 19.2435 85.1475 19.0778C84.7722 18.9121 84.4359 18.6699 84.1601 18.3668C83.8843 18.0638 83.6752 17.7065 83.5461 17.3181C83.417 16.9296 83.3708 16.5185 83.4105 16.1112ZM88.0063 16.1112C88.0063 14.7691 87.4017 13.9842 86.3406 13.9842C85.2755 13.9842 84.6763 14.7691 84.6763 16.1112C84.6763 17.464 85.2755 18.2428 86.3406 18.2428C87.4017 18.2428 88.0063 17.4587 88.0063 16.1112H88.0063Z" fill="white"/>
<path d="M90.5574 17.4586C90.5574 16.3441 91.3895 15.7016 92.8667 15.6103L94.5485 15.5136V14.9792C94.5485 14.3252 94.1149 13.956 93.2774 13.956C92.5933 13.956 92.1194 14.2064 91.9834 14.6442H90.7971C90.9223 13.5807 91.9255 12.8986 93.3339 12.8986C94.8905 12.8986 95.7685 13.6713 95.7685 14.9792V19.2096H94.5889V18.3395H94.492C94.2952 18.6516 94.0188 18.906 93.6912 19.0768C93.3636 19.2476 92.9963 19.3286 92.627 19.3116C92.3664 19.3386 92.1029 19.3109 91.8537 19.2302C91.6044 19.1495 91.3749 19.0176 91.1799 18.843C90.9849 18.6684 90.8288 18.455 90.7216 18.2166C90.6143 17.9781 90.5584 17.7199 90.5574 17.4586ZM94.5485 16.9295V16.4119L93.0323 16.5086C92.1773 16.5656 91.7894 16.8557 91.7894 17.4015C91.7894 17.9588 92.2742 18.283 92.9408 18.283C93.1361 18.3028 93.3334 18.2831 93.5209 18.2252C93.7084 18.1673 93.8824 18.0724 94.0324 17.9462C94.1824 17.8199 94.3054 17.6648 94.3941 17.4902C94.4827 17.3155 94.5352 17.1248 94.5485 16.9295Z" fill="white"/>
<path d="M97.3788 16.1111C97.3788 14.1547 98.3873 12.9154 99.9561 12.9154C100.344 12.8975 100.729 12.9902 101.066 13.1826C101.404 13.3749 101.679 13.659 101.86 14.0016H101.952V10.6011H103.177V19.2096H102.003V18.2314H101.906C101.711 18.5716 101.426 18.8522 101.082 19.0426C100.738 19.233 100.349 19.326 99.9561 19.3116C98.3766 19.3117 97.3788 18.0723 97.3788 16.1111ZM98.6446 16.1111C98.6446 17.4244 99.2653 18.2146 100.304 18.2146C101.336 18.2146 101.975 17.413 101.975 16.1165C101.975 14.8261 101.33 14.0131 100.304 14.0131C99.272 14.0131 98.6445 14.8087 98.6445 16.1111H98.6446Z" fill="white"/>
<path d="M108.247 16.1112C108.208 15.7043 108.254 15.2938 108.384 14.9059C108.513 14.5181 108.722 14.1615 108.998 13.859C109.274 13.5565 109.61 13.3149 109.985 13.1495C110.36 12.9841 110.765 12.8987 111.175 12.8987C111.585 12.8987 111.99 12.9841 112.365 13.1495C112.74 13.3149 113.076 13.5565 113.351 13.859C113.627 14.1615 113.836 14.5181 113.966 14.9059C114.095 15.2938 114.142 15.7043 114.103 16.1112C114.143 16.5185 114.097 16.9296 113.967 17.3181C113.838 17.7065 113.629 18.0638 113.354 18.3669C113.078 18.6699 112.741 18.9121 112.366 19.0778C111.991 19.2436 111.585 19.3292 111.175 19.3292C110.764 19.3292 110.359 19.2436 109.983 19.0778C109.608 18.9121 109.272 18.6699 108.996 18.3669C108.72 18.0638 108.511 17.7065 108.382 17.3181C108.253 16.9296 108.207 16.5185 108.247 16.1112ZM112.842 16.1112C112.842 14.7691 112.238 13.9843 111.177 13.9843C110.112 13.9843 109.513 14.7691 109.513 16.1112C109.513 17.464 110.112 18.2428 111.177 18.2428C112.238 18.2428 112.842 17.4587 112.842 16.1112Z" fill="white"/>
<path d="M115.747 13.0181H116.927V14.0016H117.018C117.174 13.6484 117.436 13.3522 117.768 13.1545C118.1 12.9568 118.486 12.8673 118.871 12.8986C119.173 12.8759 119.476 12.9213 119.759 13.0315C120.041 13.1416 120.294 13.3136 120.501 13.5348C120.707 13.7559 120.861 14.0206 120.951 14.3091C121.041 14.5976 121.064 14.9025 121.02 15.2014V19.2095H119.795V15.5082C119.795 14.5133 119.361 14.0184 118.455 14.0184C118.25 14.0089 118.045 14.0437 117.855 14.1205C117.664 14.1972 117.493 14.3142 117.352 14.4632C117.211 14.6122 117.104 14.7898 117.039 14.9839C116.973 15.1779 116.951 15.3838 116.972 15.5875V19.2096H115.747V13.0181Z" fill="white"/>
<path d="M127.944 11.4766V13.0463H129.289V14.0755H127.944V17.2592C127.944 17.9078 128.212 18.1918 128.822 18.1918C128.978 18.1913 129.134 18.1818 129.289 18.1636V19.1814C129.069 19.2206 128.846 19.2415 128.623 19.2438C127.26 19.2438 126.717 18.7658 126.717 17.5721V14.0754H125.732V13.0462H126.717V11.4766H127.944Z" fill="white"/>
<path d="M130.963 10.6011H132.178V14.0131H132.275C132.437 13.6565 132.707 13.3587 133.045 13.1602C133.384 12.9617 133.776 12.8722 134.168 12.9039C134.468 12.8876 134.769 12.9377 135.048 13.0505C135.327 13.1633 135.577 13.3361 135.781 13.5565C135.985 13.777 136.138 14.0397 136.229 14.3259C136.32 14.6121 136.346 14.9147 136.306 15.2121V19.2096H135.079V15.5136C135.079 14.5246 134.618 14.0238 133.752 14.0238C133.541 14.0066 133.329 14.0354 133.131 14.1084C132.933 14.1813 132.753 14.2966 132.604 14.4461C132.455 14.5956 132.341 14.7758 132.269 14.974C132.197 15.1721 132.17 15.3836 132.188 15.5935V19.2095H130.963L130.963 10.6011Z" fill="white"/>
<path d="M143.451 17.5377C143.284 18.1035 142.923 18.593 142.432 18.9205C141.94 19.2479 141.348 19.3925 140.76 19.3289C140.351 19.3397 139.945 19.2616 139.569 19.1C139.193 18.9384 138.857 18.6972 138.584 18.3931C138.311 18.089 138.108 17.7294 137.989 17.3391C137.869 16.9489 137.836 16.5374 137.892 16.1332C137.838 15.7277 137.871 15.3153 137.99 14.9239C138.11 14.5324 138.312 14.1711 138.583 13.8644C138.855 13.5577 139.189 13.3127 139.564 13.146C139.938 12.9794 140.345 12.8949 140.755 12.8984C142.482 12.8984 143.525 14.0754 143.525 16.0197V16.446H139.14V16.5145C139.121 16.7417 139.15 16.9704 139.224 17.186C139.299 17.4015 139.418 17.5991 139.574 17.7661C139.729 17.9331 139.918 18.0658 140.129 18.1557C140.339 18.2456 140.565 18.2908 140.794 18.2882C141.087 18.3233 141.384 18.2707 141.647 18.137C141.91 18.0034 142.127 17.7947 142.271 17.5376L143.451 17.5377ZM139.14 15.5423H142.276C142.292 15.3345 142.264 15.1258 142.193 14.9296C142.123 14.7333 142.012 14.5539 141.868 14.4029C141.725 14.2518 141.55 14.1325 141.358 14.0525C141.165 13.9725 140.957 13.9336 140.748 13.9384C140.536 13.9357 140.326 13.9754 140.13 14.0551C139.933 14.1348 139.755 14.2528 139.605 14.4023C139.455 14.5518 139.337 14.7297 139.257 14.9255C139.177 15.1213 139.138 15.331 139.14 15.5423H139.14Z" fill="white"/>
</g>
<defs>
<filter id="filter0_dd" x="-123" y="-460" width="610" height="601" filterUnits="userSpaceOnUse" color-interpolation-filters="sRGB">
<feFlood flood-opacity="0" result="BackgroundImageFix"/>
<feColorMatrix in="SourceAlpha" type="matrix" values="0 0 0 0 0 0 0 0 0 0 0 0 0 0 0 0 0 0 127 0"/>
<feOffset dy="10"/>
<feGaussianBlur stdDeviation="10"/>
<feColorMatrix type="matrix" values="0 0 0 0 0 0 0 0 0 0 0 0 0 0 0 0 0 0 0.1 0"/>
<feBlend mode="normal" in2="BackgroundImageFix" result="effect1_dropShadow"/>
<feColorMatrix in="SourceAlpha" type="matrix" values="0 0 0 0 0 0 0 0 0 0 0 0 0 0 0 0 0 0 127 0"/>
<feOffset dy="1"/>
<feGaussianBlur stdDeviation="1.5"/>
<feColorMatrix type="matrix" values="0 0 0 0 0 0 0 0 0 0 0 0 0 0 0 0 0 0 0.1 0"/>
<feBlend mode="normal" in2="effect1_dropShadow" result="effect2_dropShadow"/>
<feBlend mode="normal" in="SourceGraphic" in2="effect2_dropShadow" result="shape"/>
</filter>
<clipPath id="clip0">
<rect width="1440" height="2790" fill="white" transform="translate(-538 -1342)"/>
</clipPath>
</defs>
</svg>
