<svg width="111" height="16" fill="none" xmlns="http://www.w3.org/2000/svg"><path d="M0 .216h2.214v3.58L2.08 4.962h.135c.203-.345.519-.639.947-.883.428-.244.958-.366 1.589-.366a3.5 3.5 0 0 1 1.505.333c.484.21.907.51 1.267.899a4.1 4.1 0 0 1 .88 1.365 4.67 4.67 0 0 1 .32 1.748c0 .633-.107 1.216-.32 1.748a4.284 4.284 0 0 1-.88 1.382 4.1 4.1 0 0 1-1.267.9c-.474.21-.975.316-1.505.316-.631 0-1.16-.122-1.589-.367-.428-.244-.744-.538-.947-.882H2.08v.982H0V.217zM4.294 10.39c.293 0 .569-.055.828-.166a2.18 2.18 0 0 0 .71-.466c.203-.2.366-.444.49-.733s.186-.61.186-.966c0-.355-.062-.677-.186-.965a2.273 2.273 0 0 0-.49-.733 2.18 2.18 0 0 0-.71-.466 2.082 2.082 0 0 0-.828-.167c-.293 0-.575.056-.846.167-.259.1-.49.25-.693.45-.202.2-.366.443-.49.732a2.467 2.467 0 0 0-.186.982c0 .367.062.694.186.983.124.288.288.532.49.732.203.2.434.355.693.466.27.1.553.15.846.15zm11.49.682h-.135c-.26.41-.609.738-1.048.982-.44.233-.942.35-1.505.35-1.048 0-1.831-.317-2.35-.95-.507-.632-.76-1.476-.76-2.53V3.979H12.2v4.679c0 .588.13 1.026.389 1.315.27.277.66.416 1.166.416.305 0 .57-.06.795-.183a1.88 1.88 0 0 0 .591-.516 2.21 2.21 0 0 0 .372-.766c.09-.3.136-.616.136-.949V3.979h2.214v8.158h-2.08v-1.065zM23.498 16a4.93 4.93 0 0 1-1.572-.233 4.182 4.182 0 0 1-1.184-.583 3.79 3.79 0 0 1-.845-.782 3.072 3.072 0 0 1-.49-.866l2.113-.833c.158.433.417.766.778 1 .36.244.76.366 1.2.366.698 0 1.25-.217 1.656-.65.406-.421.609-1.015.609-1.781v-.566h-.135c-.26.355-.603.638-1.032.849-.416.2-.912.3-1.487.3-.496 0-.98-.1-1.454-.3a3.879 3.879 0 0 1-1.234-.85 4.531 4.531 0 0 1-.879-1.348 4.364 4.364 0 0 1-.338-1.748c0-.644.113-1.226.338-1.748.226-.533.519-.982.88-1.349.36-.377.771-.666 1.233-.866.473-.2.958-.3 1.454-.3.575 0 1.07.106 1.487.317.429.2.773.477 1.032.833h.135v-.883h2.113v7.576c0 .688-.107 1.304-.321 1.848a3.901 3.901 0 0 1-.896 1.398 3.735 3.735 0 0 1-1.386.883c-.53.21-1.122.316-1.775.316zm.084-5.744c.27 0 .536-.05.795-.15a2.1 2.1 0 0 0 .71-.433c.203-.2.366-.438.49-.716.124-.288.186-.616.186-.982s-.062-.694-.186-.982a2.086 2.086 0 0 0-.49-.716 1.98 1.98 0 0 0-.71-.45 2.193 2.193 0 0 0-1.59 0c-.258.1-.49.25-.692.45a2.347 2.347 0 0 0-.676 1.698c0 .366.061.694.186.982a2.3 2.3 0 0 0 .49.716 2.192 2.192 0 0 0 1.488.583zm7.416-7.459c-.192 0-.378-.033-.558-.1a1.796 1.796 0 0 1-.457-.3 1.764 1.764 0 0 1-.304-.449 1.447 1.447 0 0 1-.101-.55c0-.2.034-.382.101-.549.08-.166.18-.31.305-.433.135-.133.287-.233.456-.3.18-.077.366-.116.558-.116.394 0 .732.139 1.014.416a1.3 1.3 0 0 1 .423.983c0 .388-.141.721-.423.998-.282.267-.62.4-1.014.4zm-1.099 9.34V3.98h2.214v8.158H29.9zm6.319-7.092h.135c.259-.41.608-.733 1.048-.966.44-.244.94-.366 1.504-.366.519 0 .975.083 1.37.25.394.166.715.405.963.715.26.3.45.666.575 1.1.135.421.203.893.203 1.415v4.944H39.8V7.46c0-.588-.135-1.021-.406-1.299-.259-.288-.642-.433-1.149-.433-.304 0-.575.067-.811.2a1.85 1.85 0 0 0-.592.516 2.44 2.44 0 0 0-.372.766c-.079.289-.118.6-.118.933v3.995h-2.215V3.98h2.08v1.066zm8.962 7.192c-.405 0-.755-.139-1.048-.416a1.426 1.426 0 0 1-.422-1.032c0-.4.14-.738.422-1.016a1.471 1.471 0 0 1 1.048-.416c.406 0 .75.139 1.032.416.281.278.422.616.422 1.016s-.14.743-.422 1.032a1.414 1.414 0 0 1-1.032.416zm6.484.167a4.893 4.893 0 0 1-1.454-.2 4.346 4.346 0 0 1-1.099-.516 3.81 3.81 0 0 1-.777-.75 3.748 3.748 0 0 1-.49-.865l1.977-.833c.192.422.446.738.761.95.327.2.688.3 1.082.3.406 0 .727-.073.964-.217.236-.145.355-.317.355-.516 0-.222-.102-.4-.305-.533-.191-.145-.53-.272-1.014-.383l-1.166-.25a4.326 4.326 0 0 1-.812-.266 3.21 3.21 0 0 1-.743-.467 2.37 2.37 0 0 1-.558-.682 1.904 1.904 0 0 1-.22-.933c0-.4.084-.754.254-1.065.18-.31.422-.572.726-.783.305-.222.66-.388 1.065-.5a4.73 4.73 0 0 1 1.336-.182c.789 0 1.493.155 2.113.466.62.3 1.076.782 1.369 1.448l-1.91.766a1.453 1.453 0 0 0-.693-.699 2.114 2.114 0 0 0-.913-.216 1.66 1.66 0 0 0-.828.2c-.237.122-.355.282-.355.482 0 .189.095.339.287.45.203.11.473.21.811.3l1.268.3c.845.199 1.47.52 1.877.965.416.433.625.949.625 1.548 0 .355-.085.694-.254 1.016-.169.322-.41.61-.726.866a3.516 3.516 0 0 1-1.116.582 4.482 4.482 0 0 1-1.437.217zm8.896-8.691c.643 0 1.229.11 1.758.333.541.21 1.003.51 1.387.899.394.377.698.832.912 1.365.226.533.338 1.116.338 1.748 0 .633-.112 1.216-.338 1.748a4.016 4.016 0 0 1-.913 1.382 4.246 4.246 0 0 1-1.386.9 4.73 4.73 0 0 1-1.758.316 4.846 4.846 0 0 1-1.775-.317 4.499 4.499 0 0 1-1.386-.899 4.367 4.367 0 0 1-.913-1.382 4.646 4.646 0 0 1-.32-1.748c0-.632.106-1.215.32-1.748.226-.533.53-.988.913-1.365a4.13 4.13 0 0 1 1.386-.9 4.631 4.631 0 0 1 1.775-.332zm0 6.676c.282 0 .553-.05.812-.15a2.18 2.18 0 0 0 .71-.466c.203-.2.36-.444.473-.732.124-.289.186-.616.186-.983 0-.366-.062-.693-.186-.982a2.068 2.068 0 0 0-.473-.733 1.98 1.98 0 0 0-.71-.45 2.04 2.04 0 0 0-.812-.166 2.08 2.08 0 0 0-.828.167c-.26.1-.49.25-.693.45-.203.2-.366.443-.49.732-.113.289-.17.616-.17.982 0 .367.057.694.17.983.124.288.287.532.49.732.203.2.434.355.693.466.26.1.535.15.828.15zm11.859-4.545h-3.127v6.293h-2.215V5.844H65.59V3.979h1.487V3.18c0-.5.073-.938.22-1.315.158-.389.378-.71.66-.966.281-.266.614-.466.997-.6a3.571 3.571 0 0 1 1.268-.216c.225 0 .405.011.54.034.136.022.265.055.39.1l-.136 2.047a1.546 1.546 0 0 0-.66-.116c-.326 0-.585.105-.777.316-.191.211-.287.5-.287.866v.65h3.127V1.481h2.214v2.497h2.029v1.865h-2.029v3.163c0 .189.017.367.051.533a.905.905 0 0 0 .237.4c.158.177.383.266.676.266.192 0 .344-.017.456-.05.113-.044.22-.1.322-.166L77 11.904c-.26.122-.54.211-.845.267-.293.066-.62.1-.98.1-.418 0-.795-.062-1.133-.184a2.518 2.518 0 0 1-.829-.532c-.53-.5-.794-1.21-.794-2.131v-3.58z" fill="#595D5C"/><path fill-rule="evenodd" clip-rule="evenodd" d="M86 0a3 3 0 0 0-3 3v10a3 3 0 0 0 3 3h22a3 3 0 0 0 3-3V3a3 3 0 0 0-3-3H86zm0 1a2 2 0 0 0-2 2v10a2 2 0 0 0 2 2h22a2 2 0 0 0 2-2V3a2 2 0 0 0-2-2H86z" fill="#595D5C"/><path d="M87.55 10.749V9.77a147.03 147.03 0 0 0 1.248-1.24l.336-.336.28-.28c.082-.087.144-.156.188-.205.088-.104.165-.197.23-.28a1.223 1.223 0 0 0 .263-.476c.022-.082.033-.17.033-.262a.616.616 0 0 0-.214-.468c-.142-.137-.336-.206-.583-.206-.246 0-.438.072-.575.214a1.06 1.06 0 0 0-.279.468l-.977-.402c.044-.148.115-.299.213-.452.1-.159.225-.299.378-.419A1.976 1.976 0 0 1 89.348 5c.284 0 .542.044.772.131.23.083.424.197.583.345.159.148.282.323.37.526.087.197.13.41.13.64 0 .35-.087.674-.262.97-.17.29-.378.56-.624.813l-.706.706a77.48 77.48 0 0 1-.633.624l.033.05h2.275v.944h-3.737zm6.815.131a2.12 2.12 0 0 1-.977-.222 2.337 2.337 0 0 1-.748-.624 2.898 2.898 0 0 1-.468-.928 4.002 4.002 0 0 1-.164-1.166c0-.416.055-.802.164-1.158.11-.361.266-.673.468-.936.208-.263.457-.468.748-.616.29-.153.615-.23.977-.23.361 0 .687.077.977.23.29.148.537.353.74.616.207.263.366.575.476.936.109.356.164.742.164 1.158 0 .416-.055.805-.164 1.166a2.82 2.82 0 0 1-.477.928 2.24 2.24 0 0 1-.739.624 2.12 2.12 0 0 1-.977.222zm0-1.018c.197 0 .375-.047.534-.14.158-.098.293-.233.402-.402.115-.176.2-.38.255-.616.06-.236.09-.49.09-.764 0-.28-.03-.534-.09-.764a1.799 1.799 0 0 0-.255-.607 1.178 1.178 0 0 0-.402-.403.991.991 0 0 0-.534-.148c-.203 0-.383.05-.542.148a1.179 1.179 0 0 0-.403.403c-.11.17-.194.372-.254.607a3.29 3.29 0 0 0-.082.764c0 .274.027.528.082.764.06.235.145.44.254.616.11.17.244.304.403.402.159.093.34.14.542.14zm3.017.887V9.77a147.03 147.03 0 0 0 1.248-1.24l.337-.336.279-.28c.082-.087.145-.156.189-.205.087-.104.164-.197.23-.28.07-.081.125-.16.164-.237.044-.082.077-.162.098-.238.022-.083.033-.17.033-.263a.616.616 0 0 0-.213-.468c-.143-.137-.337-.206-.583-.206-.247 0-.438.072-.575.214a1.06 1.06 0 0 0-.28.468l-.977-.402c.044-.148.115-.299.214-.452a1.58 1.58 0 0 1 .378-.419c.153-.126.333-.227.542-.304.213-.082.451-.123.714-.123.285 0 .542.044.772.131.23.083.424.197.583.345.159.148.282.323.37.526.087.197.131.41.131.64 0 .35-.088.674-.263.97-.169.29-.378.56-.624.813l-.706.706a77.48 77.48 0 0 1-.632.624l.032.05h2.275v.944h-3.736zm6.815.131a2.12 2.12 0 0 1-.977-.222 2.338 2.338 0 0 1-.747-.624 2.904 2.904 0 0 1-.469-.928 4.02 4.02 0 0 1-.164-1.166c0-.416.055-.802.164-1.158.11-.361.266-.673.469-.936.208-.263.457-.468.747-.616.29-.153.616-.23.977-.23s.687.077.977.23c.291.148.537.353.739.616.209.263.367.575.477.936.109.356.164.742.164 1.158 0 .416-.055.805-.164 1.166a2.8 2.8 0 0 1-.477.928 2.23 2.23 0 0 1-.739.624 2.12 2.12 0 0 1-.977.222zm0-1.018c.197 0 .375-.047.534-.14.159-.098.293-.233.402-.402a1.9 1.9 0 0 0 .255-.616c.06-.236.09-.49.09-.764 0-.28-.03-.534-.09-.764a1.805 1.805 0 0 0-.255-.607 1.17 1.17 0 0 0-.402-.403.993.993 0 0 0-.534-.148c-.202 0-.383.05-.542.148a1.17 1.17 0 0 0-.402.403c-.11.17-.195.372-.255.607a3.29 3.29 0 0 0-.082.764c0 .274.027.528.082.764.06.235.145.44.255.616.109.17.243.304.402.402.159.093.34.14.542.14z" fill="#595D5C"/></svg>